<svg width="31" height="32" viewBox="0 0 31 32" fill="none" xmlns="http://www.w3.org/2000/svg">
<path d="M8.2277 27.6132C7.38755 27.1328 6.31317 27.4179 5.82741 28.2503C5.34251 29.0826 5.57675 30.9613 5.67097 32C6.62607 31.5616 8.38501 30.8226 8.86991 29.9903C9.35567 29.1579 9.06784 28.0935 8.2277 27.6132ZM15.4182 0C6.90266 0 0 6.83843 0 15.2747C0 18.9517 1.31208 22.3255 3.49714 24.9612L3.91635 22.3118C2.63884 20.267 1.90069 17.8565 1.90069 15.2747C1.90069 7.87883 7.95284 1.88386 15.4182 1.88386C22.8835 1.88386 28.9348 7.87883 28.9348 15.2747C28.9348 22.6706 22.8827 28.6656 15.4182 28.6656C15.2842 28.6656 15.1502 28.663 15.0171 28.6596L12.9081 30.3465C13.7249 30.4792 14.5633 30.5494 15.4182 30.5494C23.9328 30.5494 30.8364 23.711 30.8364 15.2747C30.8364 6.83843 23.9328 0 15.4182 0ZM20.682 16.7732C22.562 13.0166 22.6994 8.80364 21.351 5.09414C17.4338 5.79288 13.8191 8.0167 11.4759 11.5087V11.507L9.44469 11.6371C7.82578 11.7416 6.53358 12.9105 6.28206 14.498L4.04686 28.615L9.43432 23.5432V23.5406C9.55101 23.9807 9.68498 24.4157 9.84056 24.8447C10.2935 24.7634 10.7421 24.6615 11.1846 24.5399L11.182 24.5425L9.4421 31.7003L20.6648 22.7245C21.9267 21.715 22.3027 20.0212 21.5836 18.5809L20.682 16.7732ZM18.0588 16.7852C17.216 18.2298 15.3516 18.7248 13.8935 17.8907C12.4353 17.0567 11.9357 15.2088 12.7776 13.7642C13.5961 12.3599 15.3802 11.8529 16.8184 12.5919C16.8599 12.6125 16.9014 12.6347 16.9429 12.6587C16.9835 12.6818 17.0233 12.7058 17.063 12.7315C18.4278 13.5964 18.8773 15.38 18.0588 16.7852Z" fill="white"/>
</svg>
