<svg width="180" height="48" viewBox="0 0 180 48" fill="none" xmlns="http://www.w3.org/2000/svg">
<path d="M12.3415 41.4197C11.0813 40.6992 9.46976 41.1269 8.74112 42.3754C8.01377 43.6239 8.36513 46.442 8.50645 48C9.9391 47.3424 12.5775 46.2339 13.3049 44.9854C14.0335 43.7369 13.6018 42.1403 12.3415 41.4197ZM23.1273 0C10.354 0 0 10.2576 0 22.9121C0 28.4275 1.96811 33.4883 5.24571 37.4418L5.87452 33.4677C3.95827 30.4004 2.85104 26.7847 2.85104 22.9121C2.85104 11.8182 11.9293 2.8258 23.1273 2.8258C34.3253 2.8258 43.4022 11.8182 43.4022 22.9121C43.4022 34.0059 34.324 42.9983 23.1273 42.9983C22.9263 42.9983 22.7254 42.9945 22.5257 42.9893L19.3622 45.5197C20.5874 45.7188 21.845 45.8241 23.1273 45.8241C35.8993 45.8241 46.2545 35.5665 46.2545 22.9121C46.2545 10.2576 35.8993 0 23.1273 0ZM31.0231 25.1599C33.843 19.525 34.0491 13.2055 32.0266 7.64121C26.1508 8.68932 20.7287 12.025 17.2139 17.263V17.2605L14.167 17.4557C11.7387 17.6124 9.80037 19.3657 9.42309 21.7471L6.07029 42.9226L14.1515 35.3147V35.3109C14.3265 35.9711 14.5275 36.6236 14.7608 37.2671C15.4402 37.1451 16.1131 36.9922 16.7769 36.8098L16.773 36.8137L14.1632 47.5504L30.9971 34.0868C32.89 32.5724 33.454 30.0318 32.3753 27.8713L31.0231 25.1599ZM27.0881 25.1778C25.824 27.3447 23.0274 28.0871 20.8402 26.8361C18.653 25.585 17.9036 22.8132 19.1664 20.6463C20.3942 18.5398 23.0702 17.7794 25.2276 18.8879C25.2899 18.9187 25.3521 18.9521 25.4143 18.9881C25.4753 19.0227 25.5349 19.0587 25.5945 19.0972C27.6417 20.3945 28.3159 23.0701 27.0881 25.1778Z" fill="#007BFF"/>
<path d="M63.3809 36L65.5391 13.6562H73.1182L75.2383 36H71.0107L70.6934 32.3945H68.002L67.7227 36H63.3809ZM68.3193 28.8271H70.3506L69.373 17.4648H69.1699L68.3193 28.8271ZM76.6094 36V13.6562H82.7539C84.362 13.6562 85.5723 14.1048 86.3848 15.002C87.1973 15.8906 87.6035 17.194 87.6035 18.9121V29.373C87.6035 31.4889 87.2311 33.1224 86.4863 34.2734C85.75 35.4245 84.4551 36 82.6016 36H76.6094ZM81.1035 32.0518H81.8779C82.6989 32.0518 83.1094 31.654 83.1094 30.8584V19.3311C83.1094 18.5863 83.0078 18.1081 82.8047 17.8965C82.61 17.6764 82.208 17.5664 81.5986 17.5664H81.1035V32.0518ZM95.5254 36V13.6562H101.581C103.206 13.6562 104.387 14.054 105.123 14.8496C105.868 15.6367 106.24 16.9401 106.24 18.7598V19.7373C106.24 20.7868 106.05 21.6374 105.669 22.2891C105.297 22.9408 104.725 23.3682 103.955 23.5713C104.962 23.8252 105.635 24.4219 105.974 25.3613C106.321 26.2923 106.494 27.4307 106.494 28.7764C106.494 30.2236 106.359 31.4889 106.088 32.5723C105.817 33.6556 105.326 34.4977 104.615 35.0986C103.904 35.6995 102.893 36 101.581 36H95.5254ZM99.8926 22.0732H100.807C101.221 22.0732 101.488 21.9124 101.606 21.5908C101.725 21.2692 101.784 20.8841 101.784 20.4355V18.1885C101.784 17.4691 101.467 17.1094 100.832 17.1094H99.8926V22.0732ZM100.337 32.0645C101.496 32.0645 102.076 31.5143 102.076 30.4141V27.6211C102.076 26.9863 101.979 26.487 101.784 26.123C101.598 25.7507 101.243 25.5645 100.718 25.5645H99.8926V32.0391C100.079 32.056 100.227 32.0645 100.337 32.0645ZM113.299 36.2031C111.513 36.2031 110.146 35.6657 109.198 34.5908C108.259 33.5075 107.789 31.946 107.789 29.9062V19.293C107.789 17.3802 108.255 15.9287 109.186 14.9385C110.125 13.9482 111.496 13.4531 113.299 13.4531C115.102 13.4531 116.468 13.9482 117.399 14.9385C118.339 15.9287 118.809 17.3802 118.809 19.293V29.9062C118.809 31.946 118.335 33.5075 117.387 34.5908C116.447 35.6657 115.085 36.2031 113.299 36.2031ZM113.337 32.0898C114.014 32.0898 114.353 31.4339 114.353 30.1221V19.2168C114.353 18.1165 114.022 17.5664 113.362 17.5664C112.618 17.5664 112.245 18.1292 112.245 19.2549V30.1475C112.245 30.8415 112.33 31.3408 112.499 31.6455C112.668 31.9417 112.948 32.0898 113.337 32.0898ZM125.943 36.2031C124.158 36.2031 122.791 35.6657 121.843 34.5908C120.903 33.5075 120.434 31.946 120.434 29.9062V19.293C120.434 17.3802 120.899 15.9287 121.83 14.9385C122.77 13.9482 124.141 13.4531 125.943 13.4531C127.746 13.4531 129.113 13.9482 130.044 14.9385C130.983 15.9287 131.453 17.3802 131.453 19.293V29.9062C131.453 31.946 130.979 33.5075 130.031 34.5908C129.092 35.6657 127.729 36.2031 125.943 36.2031ZM125.981 32.0898C126.659 32.0898 126.997 31.4339 126.997 30.1221V19.2168C126.997 18.1165 126.667 17.5664 126.007 17.5664C125.262 17.5664 124.89 18.1292 124.89 19.2549V30.1475C124.89 30.8415 124.974 31.3408 125.144 31.6455C125.313 31.9417 125.592 32.0898 125.981 32.0898ZM138.562 36.2031C136.523 36.2031 135.05 35.6953 134.145 34.6797C133.247 33.6641 132.799 32.0475 132.799 29.8301V27.6465H137.217V30.4395C137.217 30.9557 137.293 31.362 137.445 31.6582C137.606 31.946 137.881 32.0898 138.271 32.0898C138.677 32.0898 138.956 31.9714 139.108 31.7344C139.269 31.4974 139.35 31.1081 139.35 30.5664C139.35 29.8809 139.282 29.3096 139.146 28.8525C139.011 28.387 138.774 27.9469 138.436 27.5322C138.105 27.109 137.644 26.6182 137.052 26.0596L135.046 24.1553C133.548 22.7419 132.799 21.1253 132.799 19.3057C132.799 17.4014 133.239 15.9499 134.119 14.9512C135.008 13.9525 136.29 13.4531 137.966 13.4531C140.014 13.4531 141.465 13.999 142.32 15.0908C143.184 16.1826 143.615 17.8415 143.615 20.0674H139.07V18.5312C139.07 18.2266 138.981 17.9896 138.804 17.8203C138.634 17.651 138.402 17.5664 138.105 17.5664C137.75 17.5664 137.488 17.668 137.318 17.8711C137.158 18.0658 137.077 18.3197 137.077 18.6328C137.077 18.946 137.162 19.2845 137.331 19.6484C137.5 20.0124 137.835 20.4313 138.334 20.9053L140.911 23.3809C141.427 23.8717 141.901 24.3923 142.333 24.9424C142.765 25.484 143.112 26.1188 143.374 26.8467C143.636 27.5661 143.768 28.4463 143.768 29.4873C143.768 31.5863 143.378 33.2324 142.6 34.4258C141.829 35.6107 140.484 36.2031 138.562 36.2031ZM147.183 36V17.9473H144.529V13.6562H154.305V17.9473H151.651V36H147.183ZM161.033 36L163.191 13.6562H170.771L172.891 36H168.663L168.346 32.3945H165.654L165.375 36H161.033ZM165.972 28.8271H168.003L167.025 17.4648H166.822L165.972 28.8271ZM174.059 36V13.6562H178.375V36H174.059Z" fill="#2C2C2C"/>
</svg>
