<svg width="50" height="50" viewBox="0 0 50 50" fill="none" xmlns="http://www.w3.org/2000/svg">
<path d="M0 25C0 30.2795 1.67138 35.4234 4.77457 39.6946C7.87778 43.9658 12.2535 47.145 17.2746 48.7764C22.2957 50.4079 27.7043 50.4079 32.7254 48.7764C37.7465 47.145 42.1222 43.9658 45.2254 39.6946C48.3286 35.4234 50 30.2795 50 25C50 19.7205 48.3286 14.5766 45.2254 10.3054C42.1222 6.03418 37.7465 2.85503 32.7254 1.22359C27.7043 -0.407864 22.2957 -0.407864 17.2746 1.22359L18.2016 4.07676C22.6202 2.64108 27.3798 2.64108 31.7984 4.07676C36.2169 5.51243 40.0676 8.31007 42.7984 12.0687C45.5292 15.8274 47 20.3541 47 25C47 29.6459 45.5292 34.1726 42.7984 37.9313C40.0676 41.6899 36.2169 44.4876 31.7984 45.9232C27.3798 47.3589 22.6202 47.3589 18.2016 45.9232C13.7831 44.4876 9.93244 41.6899 7.20163 37.9313C4.47081 34.1726 3 29.6459 3 25H0Z" fill="white"/>
<path d="M29.7495 19.5554L27.2265 17.0353L25.686 15.4887C25.0336 14.8371 23.9726 14.8371 23.3202 15.4887L19.2489 19.5554C18.7144 20.0893 19.0995 21 19.8462 21H24.2555H29.1521C29.9066 21 30.2839 20.0893 29.7495 19.5554Z" fill="white"/>
<path d="M18.1687 33.2262V35.3386H16.9023V33.2262H14.9301V31.9936H16.9023V29.9054H18.1687V31.9936H20.1409V33.2262H18.1687ZM23.9161 35.5609C22.4176 35.5609 21.3397 34.6715 21.2962 33.4099H22.6448C22.727 33.9996 23.249 34.4057 23.9258 34.4057C24.6895 34.4057 25.2164 33.8739 25.2164 33.115C25.2164 32.3416 24.6895 31.8002 23.9354 31.8002C23.4086 31.8002 22.9542 32.0419 22.7125 32.4431H21.4074L21.7506 28.4311H26.188V29.5912H22.8962L22.7367 31.5005H22.7657C23.0509 31.0317 23.6067 30.7368 24.3173 30.7368C25.6514 30.7368 26.6085 31.7181 26.6085 33.0764C26.6085 34.5555 25.5161 35.5609 23.9161 35.5609ZM30.3257 30.1036C30.3257 31.2153 29.7118 31.9114 28.7354 31.9114C27.7638 31.9114 27.1451 31.2153 27.1451 30.1036C27.1451 28.9966 27.7638 28.2957 28.7354 28.2957C29.7118 28.2957 30.3257 28.9966 30.3257 30.1036ZM28.7354 31.0558C29.0496 31.0558 29.2429 30.6981 29.2429 30.0987C29.2429 29.4993 29.0496 29.1368 28.7354 29.1368C28.4212 29.1368 28.2278 29.4993 28.2278 30.0987C28.2278 30.6981 28.4212 31.0558 28.7354 31.0558ZM29.0061 35.4062H27.8363L30.5432 31.6987L32.9263 28.4311H34.0912L31.4617 32.0371L29.0061 35.4062ZM34.7825 33.6951C34.7825 34.8069 34.1686 35.5078 33.1922 35.5078C32.2206 35.5078 31.6018 34.8069 31.6018 33.6951C31.6018 32.5881 32.2206 31.8872 33.1922 31.8872C34.1686 31.8872 34.7825 32.5881 34.7825 33.6951ZM33.1922 34.6473C33.5064 34.6473 33.6997 34.2896 33.6997 33.6903C33.6997 33.0909 33.5064 32.7283 33.1922 32.7283C32.878 32.7283 32.6846 33.0909 32.6846 33.6903C32.6846 34.2896 32.878 34.6473 33.1922 34.6473Z" fill="white"/>
</svg>
